<svg id="Layer_1_copy" data-name="Layer 1 copy" xmlns="http://www.w3.org/2000/svg" viewBox="0 0 2084 1165.74"><defs><style>.cls-1{fill:#2261ab;}</style></defs><path class="cls-1" d="M1537.5,169.5h-1018c-204.33,0-370,165.88-370,370.5s165.65,370.5,370,370.5h1018c204.31,0,369.93-165.9,369.93-370.5S1741.81,169.53,1537.5,169.5Zm-1016,733c-200.48,0-363-162.52-363-363s162.52-363,363-363,363,162.52,363,363S722,902.5,521.5,902.5Zm1015,0a362.17,362.17,0,0,1-275-126h-323v-175h240.28a366.19,366.19,0,0,1,3.8-143H938.5v-151h318.81c66.58-80,166.93-131,279.19-131,200.48,0,363,162.52,363,363S1737,902.5,1536.5,902.5Z"/><circle class="cls-1" cx="521" cy="540" r="143"/><circle class="cls-1" cx="1532" cy="539" r="143"/></svg>